<?xml version="1.0" encoding="utf-8"?>
<!-- Generator: Adobe Illustrator 17.1.0, SVG Export Plug-In . SVG Version: 6.00 Build 0)  -->
<!DOCTYPE svg PUBLIC "-//W3C//DTD SVG 1.1//EN" "http://www.w3.org/Graphics/SVG/1.1/DTD/svg11.dtd">
<svg version="1.1" id="Layer_1" xmlns="http://www.w3.org/2000/svg" xmlns:xlink="http://www.w3.org/1999/xlink" x="0px" y="0px"
	 viewBox="0 0 160.214 130.809" enable-background="new 0 0 160.214 130.809" xml:space="preserve">
<path fill="#FFFFFF" d="M36.547,87.726l-2.333,8.667c0,0-14.333-18.667-23.333-23.333c0,0-12.667,24.667-10.667,36.667
	l11.333,13.667l-9.667-15.333c0,0,3.667-22.667,10.667-31c0,0,13.333,12,20,21.167c0,0,2.333,6.833,5.333,0v-9.833L36.547,87.726z"
	/>
<path fill="#FFFFFF" d="M35.214,83.059c0,0-28.667-29-21.333-59c0,0,7.667-22.333,35-19.333c0,0,41.667,4.333,48.333,51
	c0,0,7.75-41.667-48-55.333c0,0-30.274-5.333-39.333,23.333C9.881,23.726,3.881,60.392,35.214,83.059z"/>
<path fill="#FFFFFF" d="M66.964,89.059c0,0,22.25-2.5,31.5-12c0,0-0.5,6.25-3,8.5l6.25,10l23.5-22.5c0,0,0.75-7.25,8,0l25,24l2,15.5
	l-28.5-34.25c0,0-5.25,0.5-6.5,0l-7.25,6.75c0,0-13,12.833-17.5,13.167l-6.25-11.917c0,0-12.75,5.278-14.75,4.889
	C79.464,91.198,66.214,92.809,66.964,89.059z"/>
<path fill="#FFFFFF" d="M75.205,91.513l5.759,10.796c0,0,0,7.25,5.5,0l21-17l19.25,31c0,0,9.75,12,9.75,14.5c0,0,5.25-7.5-8.25-29.5
	l-14.64-23c0,0-11.133-4.273-7.237,4.75l-22.623,18.75l-5.5-10.611C78.214,91.198,74.194,89.618,75.205,91.513z"/>
<g>
	<path fill="#FFFFFF" d="M47.584,42.867H30.403V30.033h47.265v12.834H60.487v34.431H47.584V42.867z M31.783,32.586v7.59l3.795-3.795
		L31.783,32.586z M32.956,31.413l4.14,4.14h33.879l4.139-4.14H32.956z M37.096,37.209l-4.14,4.14h14.973l4.14-4.14H37.096z
		 M49.102,42.522v32.222l4.14-4.14V38.382L49.102,42.522z M54.001,72.123l-3.795,3.795h7.59L54.001,72.123z M54.829,70.605
		l4.14,4.14V42.522l-4.14-4.14V70.605z M56.002,37.209l4.14,4.14h14.972l-4.139-4.14H56.002z M72.493,36.381l3.795,3.795v-7.59
		L72.493,36.381z"/>
</g>
</svg>
